<svg width="1432" height="360" viewBox="0 0 1432 360" fill="none" xmlns="http://www.w3.org/2000/svg">
<rect x="160.494" y="79.4922" width="101.019" height="101.018" fill="black" fill-opacity="0.04"/>
<rect x="160.494" y="79.4922" width="101.019" height="101.018" stroke="#345EB4"/>
<rect x="160.494" y="281.487" width="101.019" height="101.018" fill="black" fill-opacity="0.04"/>
<rect x="160.494" y="281.487" width="101.019" height="101.018" stroke="#345EB4"/>
<rect x="160.494" y="-21.5049" width="101.019" height="101.018" fill="black" fill-opacity="0.08"/>
<rect x="160.494" y="-21.5049" width="101.019" height="101.018" stroke="#345EB4"/>
<rect x="160.494" y="180.49" width="101.019" height="101.018" fill="black" fill-opacity="0.04"/>
<rect x="160.494" y="180.49" width="101.019" height="101.018" stroke="#345EB4"/>
<rect x="463.492" y="79.4922" width="101.019" height="101.018" fill="black" fill-opacity="0.04"/>
<rect x="463.492" y="79.4922" width="101.019" height="101.018" stroke="#345EB4"/>
<rect x="1170.49" y="79.4922" width="101.019" height="101.018" fill="black" fill-opacity="0.04"/>
<rect x="1170.49" y="79.4922" width="101.019" height="101.018" stroke="#345EB4"/>
<rect x="463.492" y="281.487" width="101.019" height="101.018" fill="black" fill-opacity="0.04"/>
<rect x="463.492" y="281.487" width="101.019" height="101.018" stroke="#345EB4"/>
<rect x="1170.49" y="281.487" width="101.019" height="101.018" fill="black" fill-opacity="0.04"/>
<rect x="1170.49" y="281.487" width="101.019" height="101.018" stroke="#345EB4"/>
<rect x="463.492" y="-21.5049" width="101.019" height="101.018" fill="black" fill-opacity="0.12"/>
<rect x="463.492" y="-21.5049" width="101.019" height="101.018" stroke="#345EB4"/>
<rect x="1170.49" y="-21.5049" width="101.019" height="101.018" fill="black" fill-opacity="0.08"/>
<rect x="1170.49" y="-21.5049" width="101.019" height="101.018" stroke="#345EB4"/>
<rect x="463.492" y="180.49" width="101.019" height="101.018" fill="black" fill-opacity="0.08"/>
<rect x="463.492" y="180.49" width="101.019" height="101.018" stroke="#345EB4"/>
<rect x="1170.49" y="180.49" width="101.019" height="101.018" fill="black" fill-opacity="0.04"/>
<rect x="1170.49" y="180.49" width="101.019" height="101.018" stroke="#345EB4"/>
<rect x="867.488" y="79.4922" width="101.019" height="101.018" fill="black" fill-opacity="0.04"/>
<rect x="867.488" y="79.4922" width="101.019" height="101.018" stroke="#345EB4"/>
<rect x="867.488" y="281.487" width="101.019" height="101.018" fill="black" fill-opacity="0.04"/>
<rect x="867.488" y="281.487" width="101.019" height="101.018" stroke="#345EB4"/>
<rect x="867.488" y="-21.5049" width="101.019" height="101.018" fill="black" fill-opacity="0.12"/>
<rect x="867.488" y="-21.5049" width="101.019" height="101.018" stroke="#345EB4"/>
<rect x="867.488" y="180.49" width="101.019" height="101.018" fill="black" fill-opacity="0.04"/>
<rect x="867.488" y="180.49" width="101.019" height="101.018" stroke="#345EB4"/>
<rect x="261.494" y="79.4922" width="101.019" height="101.018" fill="black" fill-opacity="0.04"/>
<rect x="261.494" y="79.4922" width="101.019" height="101.018" stroke="#345EB4"/>
<rect x="261.494" y="281.487" width="101.019" height="101.018" fill="black" fill-opacity="0.04"/>
<rect x="261.494" y="281.487" width="101.019" height="101.018" stroke="#345EB4"/>
<rect x="261.494" y="-21.5049" width="101.019" height="101.018" fill="black" fill-opacity="0.04"/>
<rect x="261.494" y="-21.5049" width="101.019" height="101.018" stroke="#345EB4"/>
<rect x="261.494" y="180.49" width="101.019" height="101.018" fill="black" fill-opacity="0.08"/>
<rect x="261.494" y="180.49" width="101.019" height="101.018" stroke="#345EB4"/>
<rect x="-41.5039" y="79.4922" width="101.019" height="101.018" fill="black" fill-opacity="0.04"/>
<rect x="-41.5039" y="79.4922" width="101.019" height="101.018" stroke="#345EB4"/>
<rect x="-41.5039" y="281.487" width="101.019" height="101.018" fill="black" fill-opacity="0.04"/>
<rect x="-41.5039" y="281.487" width="101.019" height="101.018" stroke="#345EB4"/>
<rect x="-41.5039" y="-21.5049" width="101.019" height="101.018" fill="black" fill-opacity="0.08"/>
<rect x="-41.5039" y="-21.5049" width="101.019" height="101.018" stroke="#345EB4"/>
<rect x="-41.5039" y="180.49" width="101.019" height="101.018" fill="black" fill-opacity="0.04"/>
<rect x="-41.5039" y="180.49" width="101.019" height="101.018" stroke="#345EB4"/>
<rect x="564.492" y="79.4922" width="101.019" height="101.018" fill="black" fill-opacity="0.04"/>
<rect x="564.492" y="79.4922" width="101.019" height="101.018" stroke="#345EB4"/>
<rect x="1271.48" y="79.4922" width="101.019" height="101.018" fill="black" fill-opacity="0.08"/>
<rect x="1271.48" y="79.4922" width="101.019" height="101.018" stroke="#345EB4"/>
<rect x="564.492" y="281.487" width="101.019" height="101.018" fill="black" fill-opacity="0.04"/>
<rect x="564.492" y="281.487" width="101.019" height="101.018" stroke="#345EB4"/>
<rect x="1271.48" y="281.487" width="101.019" height="101.018" fill="black" fill-opacity="0.12"/>
<rect x="1271.48" y="281.487" width="101.019" height="101.018" stroke="#345EB4"/>
<rect x="564.492" y="-21.5049" width="101.019" height="101.018" fill="black" fill-opacity="0.04"/>
<rect x="564.492" y="-21.5049" width="101.019" height="101.018" stroke="#345EB4"/>
<rect x="1271.48" y="-21.5049" width="101.019" height="101.018" fill="black" fill-opacity="0.04"/>
<rect x="1271.48" y="-21.5049" width="101.019" height="101.018" stroke="#345EB4"/>
<rect x="564.492" y="180.49" width="101.019" height="101.018" fill="black" fill-opacity="0.04"/>
<rect x="564.492" y="180.49" width="101.019" height="101.018" stroke="#345EB4"/>
<rect x="1271.48" y="180.49" width="101.019" height="101.018" fill="black" fill-opacity="0.04"/>
<rect x="1271.48" y="180.49" width="101.019" height="101.018" stroke="#345EB4"/>
<rect x="968.488" y="79.4922" width="101.019" height="101.018" fill="black" fill-opacity="0.04"/>
<rect x="968.488" y="79.4922" width="101.019" height="101.018" stroke="#345EB4"/>
<rect x="968.488" y="281.487" width="101.019" height="101.018" fill="black" fill-opacity="0.04"/>
<rect x="968.488" y="281.487" width="101.019" height="101.018" stroke="#345EB4"/>
<rect x="968.488" y="-21.5049" width="101.019" height="101.018" fill="black" fill-opacity="0.04"/>
<rect x="968.488" y="-21.5049" width="101.019" height="101.018" stroke="#345EB4"/>
<rect x="968.488" y="180.49" width="101.019" height="101.018" fill="black" fill-opacity="0.08"/>
<rect x="968.488" y="180.49" width="101.019" height="101.018" stroke="#345EB4"/>
<rect x="362.492" y="79.4922" width="101.019" height="101.018" fill="black" fill-opacity="0.04"/>
<rect x="362.492" y="79.4922" width="101.019" height="101.018" stroke="#345EB4"/>
<rect x="362.492" y="281.487" width="101.019" height="101.018" fill="black" fill-opacity="0.08"/>
<rect x="362.492" y="281.487" width="101.019" height="101.018" stroke="#345EB4"/>
<rect x="362.492" y="-21.5049" width="101.019" height="101.018" fill="black" fill-opacity="0.04"/>
<rect x="362.492" y="-21.5049" width="101.019" height="101.018" stroke="#345EB4"/>
<rect x="362.492" y="180.49" width="101.019" height="101.018" fill="black" fill-opacity="0.04"/>
<rect x="362.492" y="180.49" width="101.019" height="101.018" stroke="#345EB4"/>
<rect x="766.49" y="79.4922" width="101.019" height="101.018" fill="black" fill-opacity="0.04"/>
<rect x="766.49" y="79.4922" width="101.019" height="101.018" stroke="#345EB4"/>
<rect x="766.49" y="281.487" width="101.019" height="101.018" fill="black" fill-opacity="0.04"/>
<rect x="766.49" y="281.487" width="101.019" height="101.018" stroke="#345EB4"/>
<rect x="766.49" y="-21.5049" width="101.019" height="101.018" fill="black" fill-opacity="0.04"/>
<rect x="766.49" y="-21.5049" width="101.019" height="101.018" stroke="#345EB4"/>
<rect x="766.49" y="180.49" width="101.019" height="101.018" fill="black" fill-opacity="0.08"/>
<rect x="766.49" y="180.49" width="101.019" height="101.018" stroke="#345EB4"/>
<rect x="59.4961" y="79.4922" width="101.019" height="101.018" fill="black" fill-opacity="0.12"/>
<rect x="59.4961" y="79.4922" width="101.019" height="101.018" stroke="#345EB4"/>
<rect x="59.4961" y="281.487" width="101.019" height="101.018" fill="black" fill-opacity="0.08"/>
<rect x="59.4961" y="281.487" width="101.019" height="101.018" stroke="#345EB4"/>
<rect x="59.4961" y="-21.5049" width="101.019" height="101.018" fill="black" fill-opacity="0.04"/>
<rect x="59.4961" y="-21.5049" width="101.019" height="101.018" stroke="#345EB4"/>
<rect x="59.4961" y="180.49" width="101.019" height="101.018" fill="black" fill-opacity="0.04"/>
<rect x="59.4961" y="180.49" width="101.019" height="101.018" stroke="#345EB4"/>
<rect x="665.49" y="79.4922" width="101.019" height="101.018" fill="black" fill-opacity="0.08"/>
<rect x="665.49" y="79.4922" width="101.019" height="101.018" stroke="#345EB4"/>
<rect x="1372.48" y="79.4922" width="101.019" height="101.018" fill="black" fill-opacity="0.04"/>
<rect x="1372.48" y="79.4922" width="101.019" height="101.018" stroke="#345EB4"/>
<rect x="665.49" y="281.487" width="101.019" height="101.018" fill="black" fill-opacity="0.12"/>
<rect x="665.49" y="281.487" width="101.019" height="101.018" stroke="#345EB4"/>
<rect x="1372.48" y="281.487" width="101.019" height="101.018" fill="black" fill-opacity="0.04"/>
<rect x="1372.48" y="281.487" width="101.019" height="101.018" stroke="#345EB4"/>
<rect x="665.49" y="-21.5049" width="101.019" height="101.018" fill="black" fill-opacity="0.04"/>
<rect x="665.49" y="-21.5049" width="101.019" height="101.018" stroke="#345EB4"/>
<rect x="1372.48" y="-21.5049" width="101.019" height="101.018" fill="black" fill-opacity="0.04"/>
<rect x="1372.48" y="-21.5049" width="101.019" height="101.018" stroke="#345EB4"/>
<rect x="665.49" y="180.49" width="101.019" height="101.018" fill="black" fill-opacity="0.04"/>
<rect x="665.49" y="180.49" width="101.019" height="101.018" stroke="#345EB4"/>
<rect x="1372.48" y="180.49" width="101.019" height="101.018" fill="black" fill-opacity="0.04"/>
<rect x="1372.48" y="180.49" width="101.019" height="101.018" stroke="#345EB4"/>
<rect x="1069.49" y="79.4922" width="101.019" height="101.018" fill="black" fill-opacity="0.04"/>
<rect x="1069.49" y="79.4922" width="101.019" height="101.018" stroke="#345EB4"/>
<rect x="1069.49" y="281.487" width="101.019" height="101.018" fill="black" fill-opacity="0.12"/>
<rect x="1069.49" y="281.487" width="101.019" height="101.018" stroke="#345EB4"/>
<rect x="1069.49" y="-21.5049" width="101.019" height="101.018" fill="black" fill-opacity="0.04"/>
<rect x="1069.49" y="-21.5049" width="101.019" height="101.018" stroke="#345EB4"/>
<rect x="1069.49" y="180.49" width="101.019" height="101.018" fill="black" fill-opacity="0.04"/>
<rect x="1069.49" y="180.49" width="101.019" height="101.018" stroke="#345EB4"/>
<rect width="2324" height="809" transform="translate(-446 -224)" fill="url(#paint0_linear_81_5883)"/>
<defs>
<linearGradient id="paint0_linear_81_5883" x1="1162.88" y1="750.933" x2="1162.88" y2="11.8102" gradientUnits="userSpaceOnUse">
<stop stop-color="#2643A2" stop-opacity="0"/>
<stop offset="1" stop-color="#2643A2"/>
</linearGradient>
</defs>
</svg>
