<svg width="1432" height="809" viewBox="0 0 1432 809" fill="none" xmlns="http://www.w3.org/2000/svg">
<rect width="2324" height="809" transform="translate(-446)" fill="url(#paint0_linear_81_5508)"/>
<path d="M937.991 64.425L936.545 75.3879C936.508 75.6514 936.392 75.8974 936.212 76.0929C936.031 76.2883 935.795 76.4239 935.536 76.4813C935.276 76.5388 935.005 76.5153 934.759 76.4142C934.513 76.3131 934.303 76.139 934.159 75.9155L928.225 66.5847C928.122 66.424 927.985 66.2877 927.825 66.185C927.664 66.0824 927.482 66.0159 927.293 65.9901L916.33 64.5444C916.067 64.5079 915.821 64.3916 915.625 64.2112C915.43 64.0307 915.294 63.7948 915.237 63.5351C915.179 63.2753 915.203 63.0043 915.304 62.7582C915.405 62.5122 915.579 62.303 915.803 62.1588L925.133 56.2249C925.294 56.1218 925.43 55.985 925.533 55.8241C925.636 55.6631 925.702 55.4818 925.728 55.2927L927.174 44.3297C927.21 44.0663 927.327 43.8203 927.507 43.6248C927.687 43.4293 927.923 43.2938 928.183 43.2363C928.443 43.1789 928.714 43.2023 928.96 43.3035C929.206 43.4046 929.415 43.5786 929.559 43.8021L935.493 53.133C935.596 53.2936 935.733 53.43 935.894 53.5326C936.055 53.6353 936.236 53.7018 936.425 53.7276L947.388 55.1732C947.652 55.2098 947.898 55.3261 948.093 55.5065C948.289 55.6869 948.424 55.9229 948.482 56.1826C948.539 56.4423 948.516 56.7134 948.415 56.9594C948.313 57.2055 948.139 57.4146 947.916 57.5589L938.585 63.4928C938.424 63.5959 938.288 63.7326 938.185 63.8936C938.083 64.0545 938.016 64.2358 937.991 64.425Z" fill="#1499DC"/>
<path d="M1044.3 614.367L1035.83 621.477C1035.63 621.647 1035.37 621.75 1035.11 621.772C1034.84 621.795 1034.58 621.735 1034.35 621.602C1034.12 621.469 1033.93 621.269 1033.82 621.028C1033.71 620.788 1033.67 620.518 1033.71 620.256L1035.64 609.366C1035.67 609.178 1035.66 608.985 1035.61 608.801C1035.56 608.617 1035.47 608.445 1035.35 608.298L1028.24 599.83C1028.07 599.625 1027.97 599.373 1027.95 599.108C1027.92 598.843 1027.98 598.577 1028.12 598.347C1028.25 598.116 1028.45 597.932 1028.69 597.819C1028.93 597.706 1029.2 597.669 1029.46 597.714L1040.35 599.637C1040.54 599.669 1040.73 599.661 1040.92 599.611C1041.1 599.562 1041.27 599.473 1041.42 599.351L1049.89 592.241C1050.09 592.071 1050.35 591.968 1050.61 591.946C1050.88 591.923 1051.14 591.983 1051.37 592.116C1051.6 592.249 1051.79 592.449 1051.9 592.69C1052.01 592.93 1052.05 593.2 1052.01 593.462L1050.08 604.351C1050.05 604.54 1050.06 604.733 1050.11 604.917C1050.16 605.101 1050.25 605.273 1050.37 605.42L1057.48 613.888C1057.65 614.093 1057.75 614.345 1057.77 614.61C1057.8 614.875 1057.74 615.141 1057.6 615.371C1057.47 615.601 1057.27 615.786 1057.03 615.899C1056.79 616.012 1056.52 616.049 1056.26 616.004L1045.37 614.081C1045.18 614.048 1044.99 614.057 1044.8 614.107C1044.62 614.156 1044.45 614.245 1044.3 614.367Z" fill="#1499DC"/>
<defs>
<linearGradient id="paint0_linear_81_5508" x1="1162.88" y1="750.933" x2="1162.88" y2="11.8102" gradientUnits="userSpaceOnUse">
<stop stop-color="#F9FAFD" stop-opacity="0"/>
<stop offset="1" stop-color="#F9FAFD"/>
</linearGradient>
</defs>
</svg>
