<svg width="32" height="32" viewBox="0 0 32 32" fill="none" xmlns="http://www.w3.org/2000/svg">
<g clip-path="url(#clip0_81_6097)">
<path d="M2.66602 10.6663C2.66602 9.25185 3.22792 7.8953 4.22811 6.8951C5.22831 5.89491 6.58486 5.33301 7.99935 5.33301H23.9993C25.4138 5.33301 26.7704 5.89491 27.7706 6.8951C28.7708 7.8953 29.3327 9.25185 29.3327 10.6663V21.333C29.3327 22.7475 28.7708 24.104 27.7706 25.1042C26.7704 26.1044 25.4138 26.6663 23.9993 26.6663H7.99935C6.58486 26.6663 5.22831 26.1044 4.22811 25.1042C3.22792 24.104 2.66602 22.7475 2.66602 21.333V10.6663Z" stroke="#F7F7F7" stroke-width="2" stroke-linecap="round" stroke-linejoin="round"/>
<path d="M13.334 12L20.0007 16L13.334 20V12Z" stroke="#F7F7F7" stroke-width="2" stroke-linecap="round" stroke-linejoin="round"/>
</g>
<defs>
<clipPath id="clip0_81_6097">
<rect width="32" height="32" fill="white"/>
</clipPath>
</defs>
</svg>
